<?xml version="1.0" encoding="UTF-8" standalone="no"?>
<!-- Created with Inkscape (http://www.inkscape.org/) -->

<svg
   xmlns:dc="http://purl.org/dc/elements/1.1/"
   xmlns:cc="http://creativecommons.org/ns#"
   xmlns:rdf="http://www.w3.org/1999/02/22-rdf-syntax-ns#"
   xmlns:svg="http://www.w3.org/2000/svg"
   xmlns="http://www.w3.org/2000/svg"
   xmlns:sodipodi="http://sodipodi.sourceforge.net/DTD/sodipodi-0.dtd"
   xmlns:inkscape="http://www.inkscape.org/namespaces/inkscape"
   version="1.1"
   id="svg3750"
   width="400"
   height="480"
   viewBox="0 0 400 480"
   sodipodi:docname="logo.svg"
   inkscape:version="0.92.0 r15299"
   inkscape:export-filename="/home/user/labwiki/code/gitit/static/img/logo.png"
   inkscape:export-xdpi="38.310001"
   inkscape:export-ydpi="38.310001">
  <metadata
     id="metadata3756">
    <rdf:RDF>
      <cc:Work
         rdf:about="">
        <dc:format>image/svg+xml</dc:format>
        <dc:type
           rdf:resource="http://purl.org/dc/dcmitype/StillImage" />
        <dc:title />
      </cc:Work>
    </rdf:RDF>
  </metadata>
  <defs
     id="defs3754" />
  <sodipodi:namedview
     pagecolor="#ffffff"
     bordercolor="#666666"
     borderopacity="1"
     objecttolerance="10"
     gridtolerance="10"
     guidetolerance="10"
     inkscape:pageopacity="0"
     inkscape:pageshadow="2"
     inkscape:window-width="1280"
     inkscape:window-height="749"
     id="namedview3752"
     showgrid="false"
     inkscape:zoom="0.73129726"
     inkscape:cx="23.633855"
     inkscape:cy="255.5395"
     inkscape:window-x="5"
     inkscape:window-y="24"
     inkscape:window-maximized="0"
     inkscape:current-layer="layer2"
     fit-margin-top="0"
     fit-margin-left="0"
     fit-margin-right="0"
     fit-margin-bottom="0" />
  <g
     inkscape:groupmode="layer"
     id="layer2"
     inkscape:label="logo"
     style="display:inline;opacity:1"
     transform="translate(-54.355459,-17.931238)">
    <path
       style="fill:#00b200;stroke:#000000;stroke-width:3.79353189;stroke-miterlimit:4;stroke-dasharray:none;stroke-opacity:1;fill-opacity:1"
       d="M 65.75,20.959265 V 496.03125 h 85.92383 238.96289 39.51172 c 12.85618,0 23.20508,-10.31564 23.20508,-23.1281 V 44.087363 c 0,-12.812456 -10.3489,-23.128098 -23.20508,-23.128098 H 390.63672 151.67383 Z m 11.482422,9.09007 a 4.9554706,4.9386156 0 0 1 4.955078,4.938224 4.9554706,4.9386156 0 0 1 -4.955078,4.938226 4.9554706,4.9386156 0 0 1 -4.955078,-4.938226 4.9554706,4.9386156 0 0 1 4.955078,-4.938224 z m 0,20.383558 a 4.9554706,4.9386156 0 0 1 4.955078,4.938225 4.9554706,4.9386156 0 0 1 -4.955078,4.940171 4.9554706,4.9386156 0 0 1 -4.955078,-4.940171 4.9554706,4.9386156 0 0 1 4.955078,-4.938225 z m 0,20.385505 a 4.9554706,4.9386156 0 0 1 4.955078,4.938224 4.9554706,4.9386156 0 0 1 -4.955078,4.938225 4.9554706,4.9386156 0 0 1 -4.955078,-4.938225 4.9554706,4.9386156 0 0 1 4.955078,-4.938224 z m 0,20.385504 a 4.9554706,4.9386156 0 0 1 4.955078,4.938225 4.9554706,4.9386156 0 0 1 -4.955078,4.938223 4.9554706,4.9386156 0 0 1 -4.955078,-4.938223 4.9554706,4.9386156 0 0 1 4.955078,-4.938225 z m 0,20.383558 a 4.9554706,4.9386156 0 0 1 4.955078,4.94017 4.9554706,4.9386156 0 0 1 -4.955078,4.93823 4.9554706,4.9386156 0 0 1 -4.955078,-4.93823 4.9554706,4.9386156 0 0 1 4.955078,-4.94017 z m 0,20.38551 a 4.9554706,4.9386156 0 0 1 4.955078,4.93822 4.9554706,4.9386156 0 0 1 -4.955078,4.94017 4.9554706,4.9386156 0 0 1 -4.955078,-4.94017 4.9554706,4.9386156 0 0 1 4.955078,-4.93822 z m 0,20.3855 a 4.9554706,4.9386156 0 0 1 4.955078,4.93822 4.9554706,4.9386156 0 0 1 -4.955078,4.93822 4.9554706,4.9386156 0 0 1 -4.955078,-4.93822 4.9554706,4.9386156 0 0 1 4.955078,-4.93822 z m 0,20.3855 a 4.9554706,4.9386156 0 0 1 4.955078,4.93822 4.9554706,4.9386156 0 0 1 -4.955078,4.93823 4.9554706,4.9386156 0 0 1 -4.955078,-4.93823 4.9554706,4.9386156 0 0 1 4.955078,-4.93822 z m 0,20.38356 a 4.9554706,4.9386156 0 0 1 4.955078,4.94017 4.9554706,4.9386156 0 0 1 -4.955078,4.93823 4.9554706,4.9386156 0 0 1 -4.955078,-4.93823 4.9554706,4.9386156 0 0 1 4.955078,-4.94017 z m 0,20.38551 a 4.9554706,4.9386156 0 0 1 4.955078,4.93822 4.9554706,4.9386156 0 0 1 -4.955078,4.93822 4.9554706,4.9386156 0 0 1 -4.955078,-4.93822 4.9554706,4.9386156 0 0 1 4.955078,-4.93822 z m 0,20.3855 a 4.9554706,4.9386156 0 0 1 4.955078,4.93822 4.9554706,4.9386156 0 0 1 -4.955078,4.93823 4.9554706,4.9386156 0 0 1 -4.955078,-4.93823 4.9554706,4.9386156 0 0 1 4.955078,-4.93822 z m 0,20.3855 a 4.9554706,4.9386156 0 0 1 4.955078,4.93823 4.9554706,4.9386156 0 0 1 -4.955078,4.93822 4.9554706,4.9386156 0 0 1 -4.955078,-4.93822 4.9554706,4.9386156 0 0 1 4.955078,-4.93823 z m 0,20.38356 a 4.9554706,4.9386156 0 0 1 4.955078,4.93823 4.9554706,4.9386156 0 0 1 -4.955078,4.94017 4.9554706,4.9386156 0 0 1 -4.955078,-4.94017 4.9554706,4.9386156 0 0 1 4.955078,-4.93823 z m 0,20.38551 a 4.9554706,4.9386156 0 0 1 4.955078,4.93823 4.9554706,4.9386156 0 0 1 -4.955078,4.93821 4.9554706,4.9386156 0 0 1 -4.955078,-4.93821 4.9554706,4.9386156 0 0 1 4.955078,-4.93823 z m 0,20.38551 a 4.9554706,4.9386156 0 0 1 4.955078,4.93821 4.9554706,4.9386156 0 0 1 -4.955078,4.93823 4.9554706,4.9386156 0 0 1 -4.955078,-4.93823 4.9554706,4.9386156 0 0 1 4.955078,-4.93821 z m 0,20.38355 a 4.9554706,4.9386156 0 0 1 4.955078,4.94017 4.9554706,4.9386156 0 0 1 -4.955078,4.93822 4.9554706,4.9386156 0 0 1 -4.955078,-4.93822 4.9554706,4.9386156 0 0 1 4.955078,-4.94017 z m 0,20.3855 a 4.9554706,4.9386156 0 0 1 4.955078,4.93823 4.9554706,4.9386156 0 0 1 -4.955078,4.94017 4.9554706,4.9386156 0 0 1 -4.955078,-4.94017 4.9554706,4.9386156 0 0 1 4.955078,-4.93823 z m 0,20.38551 a 4.9554706,4.9386156 0 0 1 4.955078,4.93822 4.9554706,4.9386156 0 0 1 -4.955078,4.93822 4.9554706,4.9386156 0 0 1 -4.955078,-4.93822 4.9554706,4.9386156 0 0 1 4.955078,-4.93822 z m 0,20.3855 a 4.9554706,4.9386156 0 0 1 4.955078,4.93822 4.9554706,4.9386156 0 0 1 -4.955078,4.93823 4.9554706,4.9386156 0 0 1 -4.955078,-4.93823 4.9554706,4.9386156 0 0 1 4.955078,-4.93822 z m 0,20.38356 a 4.9554706,4.9386156 0 0 1 4.955078,4.94017 4.9554706,4.9386156 0 0 1 -4.955078,4.93823 4.9554706,4.9386156 0 0 1 -4.955078,-4.93823 4.9554706,4.9386156 0 0 1 4.955078,-4.94017 z m 0,20.38551 a 4.9554706,4.9386156 0 0 1 4.955078,4.93822 4.9554706,4.9386156 0 0 1 -4.955078,4.93822 4.9554706,4.9386156 0 0 1 -4.955078,-4.93822 4.9554706,4.9386156 0 0 1 4.955078,-4.93822 z m 0,20.3855 a 4.9554706,4.9386156 0 0 1 4.955078,4.93822 4.9554706,4.9386156 0 0 1 -4.955078,4.93822 4.9554706,4.9386156 0 0 1 -4.955078,-4.93822 4.9554706,4.9386156 0 0 1 4.955078,-4.93822 z m 0,20.3855 a 4.9554706,4.9386156 0 0 1 4.955078,4.93822 4.9554706,4.9386156 0 0 1 -4.955078,4.93823 4.9554706,4.9386156 0 0 1 -4.955078,-4.93823 4.9554706,4.9386156 0 0 1 4.955078,-4.93822 z"
       id="rect3777"
       inkscape:connector-curvature="0" />
    <g
       id="g6422"
       transform="matrix(1,0,0,0.99659871,0,1.6871483)">
      <path
         inkscape:connector-curvature="0"
         id="path4698"
         d="M 54.355459,485.72068 H 78.872682"
         style="fill:none;stroke:#000000;stroke-width:3.15120888;stroke-linecap:butt;stroke-linejoin:miter;stroke-miterlimit:4;stroke-dasharray:none;stroke-opacity:1" />
      <path
         inkscape:connector-curvature="0"
         id="path4702"
         d="M 54.355459,480.44587 H 78.872682"
         style="fill:none;stroke:#000000;stroke-width:3.15120888;stroke-linecap:butt;stroke-linejoin:miter;stroke-miterlimit:4;stroke-dasharray:none;stroke-opacity:1" />
      <path
         style="fill:none;stroke:#000000;stroke-width:3.15120888;stroke-linecap:butt;stroke-linejoin:miter;stroke-miterlimit:4;stroke-dasharray:none;stroke-opacity:1"
         d="M 54.355459,465.26614 H 78.872682"
         id="path4711"
         inkscape:connector-curvature="0" />
      <path
         style="fill:none;stroke:#000000;stroke-width:3.15120888;stroke-linecap:butt;stroke-linejoin:miter;stroke-miterlimit:4;stroke-dasharray:none;stroke-opacity:1"
         d="M 54.355459,459.99133 H 78.872682"
         id="path4713"
         inkscape:connector-curvature="0" />
      <path
         inkscape:connector-curvature="0"
         id="path4719"
         d="M 54.355459,444.81159 H 78.872682"
         style="fill:none;stroke:#000000;stroke-width:3.15120888;stroke-linecap:butt;stroke-linejoin:miter;stroke-miterlimit:4;stroke-dasharray:none;stroke-opacity:1" />
      <path
         inkscape:connector-curvature="0"
         id="path4721"
         d="M 54.355459,439.53678 H 78.872682"
         style="fill:none;stroke:#000000;stroke-width:3.15120888;stroke-linecap:butt;stroke-linejoin:miter;stroke-miterlimit:4;stroke-dasharray:none;stroke-opacity:1" />
      <path
         style="fill:none;stroke:#000000;stroke-width:3.15120888;stroke-linecap:butt;stroke-linejoin:miter;stroke-miterlimit:4;stroke-dasharray:none;stroke-opacity:1"
         d="M 54.355459,424.35704 H 78.872682"
         id="path4727"
         inkscape:connector-curvature="0" />
      <path
         style="fill:none;stroke:#000000;stroke-width:3.15120888;stroke-linecap:butt;stroke-linejoin:miter;stroke-miterlimit:4;stroke-dasharray:none;stroke-opacity:1"
         d="M 54.355459,419.08223 H 78.872682"
         id="path4729"
         inkscape:connector-curvature="0" />
      <path
         inkscape:connector-curvature="0"
         id="path4735"
         d="M 54.355459,403.9025 H 78.872682"
         style="fill:none;stroke:#000000;stroke-width:3.15120888;stroke-linecap:butt;stroke-linejoin:miter;stroke-miterlimit:4;stroke-dasharray:none;stroke-opacity:1" />
      <path
         inkscape:connector-curvature="0"
         id="path4737"
         d="M 54.355459,398.62769 H 78.872682"
         style="fill:none;stroke:#000000;stroke-width:3.15120888;stroke-linecap:butt;stroke-linejoin:miter;stroke-miterlimit:4;stroke-dasharray:none;stroke-opacity:1" />
      <path
         style="fill:none;stroke:#000000;stroke-width:3.15120888;stroke-linecap:butt;stroke-linejoin:miter;stroke-miterlimit:4;stroke-dasharray:none;stroke-opacity:1"
         d="M 54.355459,383.44795 H 78.872682"
         id="path4743"
         inkscape:connector-curvature="0" />
      <path
         style="fill:none;stroke:#000000;stroke-width:3.15120888;stroke-linecap:butt;stroke-linejoin:miter;stroke-miterlimit:4;stroke-dasharray:none;stroke-opacity:1"
         d="M 54.355459,378.17314 H 78.872682"
         id="path4745"
         inkscape:connector-curvature="0" />
      <path
         inkscape:connector-curvature="0"
         id="path4751"
         d="M 54.355459,362.9934 H 78.872682"
         style="fill:none;stroke:#000000;stroke-width:3.15120888;stroke-linecap:butt;stroke-linejoin:miter;stroke-miterlimit:4;stroke-dasharray:none;stroke-opacity:1" />
      <path
         inkscape:connector-curvature="0"
         id="path4753"
         d="M 54.355459,357.71859 H 78.872682"
         style="fill:none;stroke:#000000;stroke-width:3.15120888;stroke-linecap:butt;stroke-linejoin:miter;stroke-miterlimit:4;stroke-dasharray:none;stroke-opacity:1" />
      <path
         style="fill:none;stroke:#000000;stroke-width:3.15120888;stroke-linecap:butt;stroke-linejoin:miter;stroke-miterlimit:4;stroke-dasharray:none;stroke-opacity:1"
         d="M 54.355459,342.53886 H 78.872682"
         id="path4759"
         inkscape:connector-curvature="0" />
      <path
         style="fill:none;stroke:#000000;stroke-width:3.15120888;stroke-linecap:butt;stroke-linejoin:miter;stroke-miterlimit:4;stroke-dasharray:none;stroke-opacity:1"
         d="M 54.355459,337.26405 H 78.872682"
         id="path4761"
         inkscape:connector-curvature="0" />
      <path
         style="fill:none;stroke:#000000;stroke-width:3.15120888;stroke-linecap:butt;stroke-linejoin:miter;stroke-miterlimit:4;stroke-dasharray:none;stroke-opacity:1"
         d="M 54.355459,322.08431 H 78.872682"
         id="path4767"
         inkscape:connector-curvature="0" />
      <path
         style="fill:none;stroke:#000000;stroke-width:3.15120888;stroke-linecap:butt;stroke-linejoin:miter;stroke-miterlimit:4;stroke-dasharray:none;stroke-opacity:1"
         d="M 54.355459,316.8095 H 78.872682"
         id="path4769"
         inkscape:connector-curvature="0" />
      <path
         inkscape:connector-curvature="0"
         id="path4775"
         d="M 54.355459,301.62977 H 78.872682"
         style="fill:none;stroke:#000000;stroke-width:3.15120888;stroke-linecap:butt;stroke-linejoin:miter;stroke-miterlimit:4;stroke-dasharray:none;stroke-opacity:1" />
      <path
         inkscape:connector-curvature="0"
         id="path4777"
         d="M 54.355459,296.35496 H 78.872682"
         style="fill:none;stroke:#000000;stroke-width:3.15120888;stroke-linecap:butt;stroke-linejoin:miter;stroke-miterlimit:4;stroke-dasharray:none;stroke-opacity:1" />
      <path
         style="fill:none;stroke:#000000;stroke-width:3.15120888;stroke-linecap:butt;stroke-linejoin:miter;stroke-miterlimit:4;stroke-dasharray:none;stroke-opacity:1"
         d="M 54.355459,281.17522 H 78.872682"
         id="path4783"
         inkscape:connector-curvature="0" />
      <path
         style="fill:none;stroke:#000000;stroke-width:3.15120888;stroke-linecap:butt;stroke-linejoin:miter;stroke-miterlimit:4;stroke-dasharray:none;stroke-opacity:1"
         d="M 54.355459,275.90041 H 78.872682"
         id="path4785"
         inkscape:connector-curvature="0" />
      <path
         inkscape:connector-curvature="0"
         id="path4791"
         d="M 54.355459,260.72068 H 78.872682"
         style="fill:none;stroke:#000000;stroke-width:3.15120888;stroke-linecap:butt;stroke-linejoin:miter;stroke-miterlimit:4;stroke-dasharray:none;stroke-opacity:1" />
      <path
         inkscape:connector-curvature="0"
         id="path4793"
         d="M 54.355459,255.44587 H 78.872682"
         style="fill:none;stroke:#000000;stroke-width:3.15120888;stroke-linecap:butt;stroke-linejoin:miter;stroke-miterlimit:4;stroke-dasharray:none;stroke-opacity:1" />
      <path
         style="fill:none;stroke:#000000;stroke-width:3.15120888;stroke-linecap:butt;stroke-linejoin:miter;stroke-miterlimit:4;stroke-dasharray:none;stroke-opacity:1"
         d="M 54.355459,240.26612 H 78.872682"
         id="path4799"
         inkscape:connector-curvature="0" />
      <path
         style="fill:none;stroke:#000000;stroke-width:3.15120888;stroke-linecap:butt;stroke-linejoin:miter;stroke-miterlimit:4;stroke-dasharray:none;stroke-opacity:1"
         d="M 54.355459,234.99131 H 78.872682"
         id="path4801"
         inkscape:connector-curvature="0" />
      <path
         inkscape:connector-curvature="0"
         id="path4807"
         d="M 54.355459,219.81159 H 78.872682"
         style="fill:none;stroke:#000000;stroke-width:3.15120888;stroke-linecap:butt;stroke-linejoin:miter;stroke-miterlimit:4;stroke-dasharray:none;stroke-opacity:1" />
      <path
         inkscape:connector-curvature="0"
         id="path4809"
         d="M 54.355459,214.53678 H 78.872682"
         style="fill:none;stroke:#000000;stroke-width:3.15120888;stroke-linecap:butt;stroke-linejoin:miter;stroke-miterlimit:4;stroke-dasharray:none;stroke-opacity:1" />
      <path
         style="fill:none;stroke:#000000;stroke-width:3.15120888;stroke-linecap:butt;stroke-linejoin:miter;stroke-miterlimit:4;stroke-dasharray:none;stroke-opacity:1"
         d="M 54.355459,199.35703 H 78.872682"
         id="path4815"
         inkscape:connector-curvature="0" />
      <path
         style="fill:none;stroke:#000000;stroke-width:3.15120888;stroke-linecap:butt;stroke-linejoin:miter;stroke-miterlimit:4;stroke-dasharray:none;stroke-opacity:1"
         d="M 54.355459,194.08222 H 78.872682"
         id="path4817"
         inkscape:connector-curvature="0" />
      <path
         inkscape:connector-curvature="0"
         id="path4823"
         d="M 54.355459,178.9025 H 78.872682"
         style="fill:none;stroke:#000000;stroke-width:3.15120888;stroke-linecap:butt;stroke-linejoin:miter;stroke-miterlimit:4;stroke-dasharray:none;stroke-opacity:1" />
      <path
         inkscape:connector-curvature="0"
         id="path4825"
         d="M 54.355459,173.62769 H 78.872682"
         style="fill:none;stroke:#000000;stroke-width:3.15120888;stroke-linecap:butt;stroke-linejoin:miter;stroke-miterlimit:4;stroke-dasharray:none;stroke-opacity:1" />
      <path
         inkscape:connector-curvature="0"
         id="path4831"
         d="M 54.355459,158.44794 H 78.872682"
         style="fill:none;stroke:#000000;stroke-width:3.15120888;stroke-linecap:butt;stroke-linejoin:miter;stroke-miterlimit:4;stroke-dasharray:none;stroke-opacity:1" />
      <path
         inkscape:connector-curvature="0"
         id="path4833"
         d="M 54.355459,153.17313 H 78.872682"
         style="fill:none;stroke:#000000;stroke-width:3.15120888;stroke-linecap:butt;stroke-linejoin:miter;stroke-miterlimit:4;stroke-dasharray:none;stroke-opacity:1" />
      <path
         style="fill:none;stroke:#000000;stroke-width:3.15120888;stroke-linecap:butt;stroke-linejoin:miter;stroke-miterlimit:4;stroke-dasharray:none;stroke-opacity:1"
         d="M 54.355459,137.99339 H 78.872682"
         id="path4839"
         inkscape:connector-curvature="0" />
      <path
         style="fill:none;stroke:#000000;stroke-width:3.15120888;stroke-linecap:butt;stroke-linejoin:miter;stroke-miterlimit:4;stroke-dasharray:none;stroke-opacity:1"
         d="M 54.355459,132.71858 H 78.872682"
         id="path4841"
         inkscape:connector-curvature="0" />
      <path
         inkscape:connector-curvature="0"
         id="path4847"
         d="M 54.355459,117.53886 H 78.872682"
         style="fill:none;stroke:#000000;stroke-width:3.15120888;stroke-linecap:butt;stroke-linejoin:miter;stroke-miterlimit:4;stroke-dasharray:none;stroke-opacity:1" />
      <path
         inkscape:connector-curvature="0"
         id="path4849"
         d="M 54.355459,112.26405 H 78.872682"
         style="fill:none;stroke:#000000;stroke-width:3.15120888;stroke-linecap:butt;stroke-linejoin:miter;stroke-miterlimit:4;stroke-dasharray:none;stroke-opacity:1" />
      <path
         style="fill:none;stroke:#000000;stroke-width:3.15120888;stroke-linecap:butt;stroke-linejoin:miter;stroke-miterlimit:4;stroke-dasharray:none;stroke-opacity:1"
         d="M 54.355459,97.0843 H 78.872682"
         id="path4855"
         inkscape:connector-curvature="0" />
      <path
         style="fill:none;stroke:#000000;stroke-width:3.15120888;stroke-linecap:butt;stroke-linejoin:miter;stroke-miterlimit:4;stroke-dasharray:none;stroke-opacity:1"
         d="M 54.355459,91.80949 H 78.872682"
         id="path4857"
         inkscape:connector-curvature="0" />
      <path
         inkscape:connector-curvature="0"
         id="path4863"
         d="M 54.355459,76.62977 H 78.872682"
         style="fill:none;stroke:#000000;stroke-width:3.15120888;stroke-linecap:butt;stroke-linejoin:miter;stroke-miterlimit:4;stroke-dasharray:none;stroke-opacity:1" />
      <path
         inkscape:connector-curvature="0"
         id="path4865"
         d="M 54.355459,71.35496 H 78.872682"
         style="fill:none;stroke:#000000;stroke-width:3.15120888;stroke-linecap:butt;stroke-linejoin:miter;stroke-miterlimit:4;stroke-dasharray:none;stroke-opacity:1" />
      <path
         style="fill:none;stroke:#000000;stroke-width:3.15120888;stroke-linecap:butt;stroke-linejoin:miter;stroke-miterlimit:4;stroke-dasharray:none;stroke-opacity:1"
         d="M 54.355459,56.17521 H 78.872682"
         id="path4871"
         inkscape:connector-curvature="0" />
      <path
         style="fill:none;stroke:#000000;stroke-width:3.15120888;stroke-linecap:butt;stroke-linejoin:miter;stroke-miterlimit:4;stroke-dasharray:none;stroke-opacity:1"
         d="M 54.355459,50.9004 H 78.872682"
         id="path4873"
         inkscape:connector-curvature="0" />
      <path
         inkscape:connector-curvature="0"
         id="path4879"
         d="M 54.355459,35.72068 H 78.872682"
         style="fill:none;stroke:#000000;stroke-width:3.15120888;stroke-linecap:butt;stroke-linejoin:miter;stroke-miterlimit:4;stroke-dasharray:none;stroke-opacity:1" />
      <path
         inkscape:connector-curvature="0"
         id="path4881"
         d="M 54.355459,30.44587 H 78.872682"
         style="fill:none;stroke:#000000;stroke-width:3.15120888;stroke-linecap:butt;stroke-linejoin:miter;stroke-miterlimit:4;stroke-dasharray:none;stroke-opacity:1" />
    </g>
    <g
       id="g4932"
       transform="matrix(1,0,0,0.99659871,-19.353422,21.619122)">
      <rect
         ry="0"
         y="65.044647"
         x="160.68106"
         height="173.54633"
         width="236.44824"
         id="rect4893"
         style="fill:#ffffff;stroke:#000000;stroke-width:3.11766267;stroke-miterlimit:4;stroke-dasharray:none;stroke-opacity:1" />
      <text
         id="text4913"
         y="139.56795"
         x="281.02106"
         style="font-style:normal;font-weight:normal;font-size:40px;line-height:25px;font-family:sans-serif;letter-spacing:0px;word-spacing:0px;fill:#000000;fill-opacity:1;stroke:none"
         xml:space="preserve"><tspan
           style="font-style:normal;font-variant:normal;font-weight:bold;font-stretch:normal;font-size:66.66666412px;line-height:48.09999847px;font-family:'Droid Arabic Naskh';-inkscape-font-specification:'Droid Arabic Naskh Bold';text-align:center;letter-spacing:8.02000332px;text-anchor:middle"
           id="tspan4917"
           y="139.56795"
           x="285.03107"
           sodipodi:role="line">LAB</tspan><tspan
           id="tspan4923"
           style="font-style:normal;font-variant:normal;font-weight:bold;font-stretch:normal;font-size:66.66666412px;line-height:48.09999847px;font-family:'Droid Arabic Naskh';-inkscape-font-specification:'Droid Arabic Naskh Bold';text-align:center;letter-spacing:8.02000332px;text-anchor:middle"
           y="169.19086"
           x="281.02106"
           sodipodi:role="line" /><tspan
           id="tspan4925"
           style="font-style:normal;font-variant:normal;font-weight:bold;font-stretch:normal;font-size:66.66666412px;line-height:48.09999847px;font-family:'Droid Arabic Naskh';-inkscape-font-specification:'Droid Arabic Naskh Bold';text-align:center;letter-spacing:8.02000332px;text-anchor:middle"
           y="212.66794"
           x="285.03107"
           sodipodi:role="line">WIKI</tspan></text>
    </g>
  </g>
</svg>
