<?xml version="1.0" encoding="UTF-8" standalone="no"?>
<!-- Created with Inkscape (http://www.inkscape.org/) -->

<svg
   xmlns:dc="http://purl.org/dc/elements/1.1/"
   xmlns:cc="http://creativecommons.org/ns#"
   xmlns:rdf="http://www.w3.org/1999/02/22-rdf-syntax-ns#"
   xmlns:svg="http://www.w3.org/2000/svg"
   xmlns="http://www.w3.org/2000/svg"
   xmlns:sodipodi="http://sodipodi.sourceforge.net/DTD/sodipodi-0.dtd"
   xmlns:inkscape="http://www.inkscape.org/namespaces/inkscape"
   version="1.1"
   id="svg3750"
   width="50"
   height="50"
   viewBox="0 0 50.000001 50.000001"
   sodipodi:docname="favicon.svg"
   inkscape:version="0.92.0 r15299"
   inkscape:export-filename="/home/user/Downloads/favicon.png"
   inkscape:export-xdpi="61.439999"
   inkscape:export-ydpi="61.439999">
  <metadata
     id="metadata3756">
    <rdf:RDF>
      <cc:Work
         rdf:about="">
        <dc:format>image/svg+xml</dc:format>
        <dc:type
           rdf:resource="http://purl.org/dc/dcmitype/StillImage" />
        <dc:title />
      </cc:Work>
    </rdf:RDF>
  </metadata>
  <defs
     id="defs3754" />
  <sodipodi:namedview
     pagecolor="#ffffff"
     bordercolor="#666666"
     borderopacity="1"
     objecttolerance="10"
     gridtolerance="10"
     guidetolerance="10"
     inkscape:pageopacity="0"
     inkscape:pageshadow="2"
     inkscape:window-width="1280"
     inkscape:window-height="749"
     id="namedview3752"
     showgrid="false"
     inkscape:zoom="4.1368422"
     inkscape:cx="32.516767"
     inkscape:cy="38.840958"
     inkscape:window-x="5"
     inkscape:window-y="24"
     inkscape:window-maximized="0"
     inkscape:current-layer="layer2"
     fit-margin-top="0"
     fit-margin-left="0"
     fit-margin-right="0"
     fit-margin-bottom="0"
     showborder="true" />
  <g
     inkscape:groupmode="layer"
     id="layer2"
     inkscape:label="trace"
     style="display:inline;opacity:1"
     transform="translate(-54.83892,-14.525355)">
    <path
       style="fill:#00b200;stroke:#000000;stroke-width:1.85277212;stroke-miterlimit:4;stroke-dasharray:none;stroke-opacity:1"
       d="M 9.2089844 1.7050781 L 9.2089844 48.486328 L 17.957031 48.486328 L 42.283203 48.486328 L 46.304688 48.486328 C 47.613448 48.486328 48.667969 47.470643 48.667969 46.208984 L 48.667969 3.984375 C 48.667969 2.722714 47.613447 1.7050781 46.304688 1.7050781 L 42.283203 1.7050781 L 17.957031 1.7050781 L 9.2089844 1.7050781 z M 16.552734 6.7109375 A 3.5856664 3.5856664 0 0 1 20.138672 10.296875 A 3.5856664 3.5856664 0 0 1 16.552734 13.880859 A 3.5856664 3.5856664 0 0 1 12.96875 10.296875 A 3.5856664 3.5856664 0 0 1 16.552734 6.7109375 z M 16.552734 21.511719 A 3.5856664 3.5856664 0 0 1 20.138672 25.095703 A 3.5856664 3.5856664 0 0 1 16.552734 28.681641 A 3.5856664 3.5856664 0 0 1 12.96875 25.095703 A 3.5856664 3.5856664 0 0 1 16.552734 21.511719 z M 16.552734 36.310547 A 3.5856664 3.5856664 0 0 1 20.138672 39.896484 A 3.5856664 3.5856664 0 0 1 16.552734 43.482422 A 3.5856664 3.5856664 0 0 1 12.96875 39.896484 A 3.5856664 3.5856664 0 0 1 16.552734 36.310547 z "
       id="rect3777"
       transform="translate(54.83892,14.525355)" />
    <path
       style="fill:none;stroke:#000000;stroke-width:2.58086586;stroke-linecap:butt;stroke-linejoin:miter;stroke-miterlimit:4;stroke-dasharray:none;stroke-opacity:1"
       d="M 54.83892,56.091694 H 72.579028"
       id="path4863"
       inkscape:connector-curvature="0" />
    <path
       style="fill:none;stroke:#000000;stroke-width:2.58086586;stroke-linecap:butt;stroke-linejoin:miter;stroke-miterlimit:4;stroke-dasharray:none;stroke-opacity:1"
       d="M 54.83892,52.274961 H 72.579028"
       id="path4865"
       inkscape:connector-curvature="0" />
    <path
       inkscape:connector-curvature="0"
       id="path4871"
       d="M 54.83892,41.291244 H 72.579028"
       style="fill:none;stroke:#000000;stroke-width:2.58086586;stroke-linecap:butt;stroke-linejoin:miter;stroke-miterlimit:4;stroke-dasharray:none;stroke-opacity:1" />
    <path
       inkscape:connector-curvature="0"
       id="path4873"
       d="M 54.83892,37.474511 H 72.579028"
       style="fill:none;stroke:#000000;stroke-width:2.58086586;stroke-linecap:butt;stroke-linejoin:miter;stroke-miterlimit:4;stroke-dasharray:none;stroke-opacity:1" />
    <path
       style="fill:none;stroke:#000000;stroke-width:2.58086586;stroke-linecap:butt;stroke-linejoin:miter;stroke-miterlimit:4;stroke-dasharray:none;stroke-opacity:1"
       d="M 54.83892,26.490804 H 72.579028"
       id="path4879"
       inkscape:connector-curvature="0" />
    <path
       style="fill:none;stroke:#000000;stroke-width:2.58086586;stroke-linecap:butt;stroke-linejoin:miter;stroke-miterlimit:4;stroke-dasharray:none;stroke-opacity:1"
       d="M 54.83892,22.674071 H 72.579028"
       id="path4881"
       inkscape:connector-curvature="0" />
  </g>
</svg>
